<svg id="Ebene_1" data-name="Ebene 1" xmlns="http://www.w3.org/2000/svg" xmlns:xlink="http://www.w3.org/1999/xlink" viewBox="0 0 115.74 129.32"><defs><style>.cls-1{fill:none;}.cls-2{clip-path:url(#clip-path);}</style><clipPath id="clip-path" transform="translate(-17.13 -13.72)"><rect class="cls-1" x="17.13" y="13.72" width="115.74" height="129.32"/></clipPath></defs><g class="cls-2"><path d="M23.32,42.85c-.16,2.46-.24,5-.24,7.47,0,40.65,21.3,76,51.92,86.46,30.62-10.43,51.93-45.81,51.93-86.46,0-2.51-.08-5-.24-7.47A81.7,81.7,0,0,1,75,21.9a81.77,81.77,0,0,1-51.69,21ZM75,143l-.91-.3c-33.54-10.81-57-48.82-57-92.42,0-3.59.16-7.17.47-10.65l.24-2.7h2.71A75.87,75.87,0,0,0,72.94,15.7l2.06-2,2.06,2A75.82,75.82,0,0,0,129.45,37h2.71l.24,2.7c.31,3.47.47,7.06.47,10.65,0,43.61-23.42,81.61-57,92.42L75,143Z" transform="translate(-17.13 -13.72)"/></g><path d="M75.12,78.65l7.07-1.6,13,24.59H86.72l-11.6-23Zm-13.8-5.19H78.6a6.64,6.64,0,0,0,3.59-1,6.42,6.42,0,0,0,2.42-2.77,10.35,10.35,0,0,0,0-8.26,6.46,6.46,0,0,0-2.4-2.77,6.66,6.66,0,0,0-3.61-1H61.32V51h17A16,16,0,0,1,86,52.76a12.74,12.74,0,0,1,5.15,5.14A15.69,15.69,0,0,1,93,65.58a15.53,15.53,0,0,1-1.84,7.68A12.82,12.82,0,0,1,86,78.4a15.79,15.79,0,0,1-7.68,1.81h-17V73.46ZM58.22,51h7.11v50.69H58.22V51Z" transform="translate(-17.13 -13.72)"/></svg>